<svg width="24" height="25" viewBox="0 0 24 25" fill="none" xmlns="http://www.w3.org/2000/svg">
<path d="M20 20.945H4C3.46957 20.945 2.96086 20.7336 2.58579 20.3573C2.21071 19.9811 2 19.4707 2 18.9386V6.81329C2.02243 6.29645 2.24301 5.80827 2.61568 5.45069C2.98835 5.0931 3.4843 4.89374 4 4.89423H20C20.5304 4.89423 21.0391 5.10561 21.4142 5.48187C21.7893 5.85813 22 6.36845 22 6.90057V18.9386C22 19.4707 21.7893 19.9811 21.4142 20.3573C21.0391 20.7336 20.5304 20.945 20 20.945ZM4 8.77449V18.9386H20V8.77449L12 14.1234L4 8.77449ZM4.8 6.90057L12 11.7158L19.2 6.90057H4.8Z" fill="#1A87E6"/>
</svg>
