<svg width="18" height="23" viewBox="0 0 18 23" fill="none" xmlns="http://www.w3.org/2000/svg">
<path d="M9.00001 0.397156C6.81276 0.399879 4.71584 1.31805 3.16923 2.95024C1.62261 4.58244 0.752589 6.7954 0.750009 9.10368C0.747389 10.99 1.33124 12.8251 2.41201 14.3276C2.41201 14.3276 2.63701 14.6402 2.67376 14.6853L9.00001 22.5592L15.3293 14.6814C15.3623 14.6394 15.588 14.3276 15.588 14.3276L15.5888 14.3252C16.669 12.8234 17.2526 10.9891 17.25 9.10368C17.2474 6.7954 16.3774 4.58244 14.8308 2.95024C13.2842 1.31805 11.1873 0.399879 9.00001 0.397156ZM9.00001 12.2697C8.40666 12.2697 7.82665 12.084 7.3333 11.7361C6.83995 11.3882 6.45543 10.8938 6.22837 10.3153C6.00131 9.73674 5.9419 9.10017 6.05765 8.48602C6.17341 7.87187 6.45913 7.30775 6.87869 6.86497C7.29825 6.4222 7.83279 6.12066 8.41474 5.9985C8.99668 5.87634 9.59988 5.93904 10.1481 6.17867C10.6962 6.41829 11.1648 6.82409 11.4944 7.34474C11.8241 7.86539 12 8.4775 12 9.10368C11.999 9.94303 11.6826 10.7477 11.1202 11.3412C10.5578 11.9347 9.79535 12.2686 9.00001 12.2697Z" fill="#1A87E6"/>
</svg>
