<svg width="18" height="21" viewBox="0 0 18 21" fill="none" xmlns="http://www.w3.org/2000/svg">
<path d="M9 0.924805C6.243 0.924805 4 3.29192 4 6.20149C4 9.11105 6.243 11.4782 9 11.4782C11.757 11.4782 14 9.11105 14 6.20149C14 3.29192 11.757 0.924805 9 0.924805ZM9 9.3675C7.346 9.3675 6 7.94701 6 6.20149C6 4.45596 7.346 3.03548 9 3.03548C10.654 3.03548 12 4.45596 12 6.20149C12 7.94701 10.654 9.3675 9 9.3675ZM18 20.9762V19.9209C18 15.8483 14.859 12.5335 11 12.5335H7C3.14 12.5335 0 15.8483 0 19.9209V20.9762H2V19.9209C2 17.0113 4.243 14.6442 7 14.6442H11C13.757 14.6442 16 17.0113 16 19.9209V20.9762H18Z" fill="#1A87E6"/>
</svg>
