<svg width="21" height="23" viewBox="0 0 21 23" fill="none" xmlns="http://www.w3.org/2000/svg">
<path d="M7.52505 2.58381L8.42705 4.70082C8.66251 5.2536 8.72808 5.87031 8.61456 6.46443C8.50104 7.05854 8.21411 7.60024 7.79405 8.01351L6.30005 9.4836C6.25638 9.52655 6.22871 9.58457 6.22205 9.64718C6.17805 10.0661 6.44705 10.8819 7.06705 12.0164C7.51805 12.8406 7.92705 13.42 8.27405 13.744C8.51605 13.9709 8.64905 14.0194 8.70605 14.0025L10.716 13.3535C11.2651 13.1761 11.853 13.1845 12.3973 13.3775C12.9416 13.5706 13.415 13.9386 13.751 14.43L15.031 16.3042C15.4206 16.8742 15.6009 17.574 15.5386 18.2737C15.4763 18.9733 15.1755 19.6254 14.692 20.1087L13.806 20.9952C13.3358 21.4651 12.7583 21.7986 12.1297 21.963C11.5011 22.1274 10.8428 22.1172 10.219 21.9334C7.46505 21.1218 4.99605 18.6692 2.78405 14.6262C0.569049 10.578 -0.207951 7.09115 0.508049 4.16471C0.669225 3.50653 0.988335 2.90326 1.43462 2.41306C1.88091 1.92285 2.43933 1.56223 3.05605 1.36595L4.22305 0.995532C4.86234 0.792088 5.54993 0.841062 6.15752 1.13332C6.76511 1.42557 7.25119 1.94114 7.52505 2.58381ZM4.65605 2.50994L3.48905 2.88247C3.11912 3.00009 2.78413 3.21626 2.51633 3.51015C2.24853 3.80404 2.05695 4.16576 1.96005 4.56046C1.35805 7.0215 2.04705 10.1126 4.08305 13.8347C6.11605 17.5516 8.30505 19.7256 10.623 20.4095C10.9972 20.5195 11.3919 20.5254 11.7689 20.4266C12.1458 20.3278 12.4921 20.1278 12.774 19.8459L13.661 18.9595C13.8809 18.7397 14.0176 18.4433 14.046 18.1251C14.0743 17.807 13.9922 17.4889 13.815 17.2298L12.535 15.3565C12.3823 15.133 12.1671 14.9656 11.9196 14.8778C11.6721 14.79 11.4047 14.7861 11.155 14.8669L9.14005 15.518C7.97005 15.8853 6.90805 14.8922 5.76805 12.8079C5.00005 11.4043 4.64205 10.3173 4.73105 9.47199C4.77805 9.03297 4.97105 8.62772 5.27705 8.32589L6.77105 6.85581C6.96207 6.66798 7.09257 6.42173 7.14422 6.15164C7.19587 5.88155 7.16609 5.60117 7.05905 5.34985L6.15705 3.23284C6.03257 2.94095 5.81177 2.70677 5.53579 2.57396C5.25982 2.44116 4.9475 2.41878 4.65705 2.51099L4.65605 2.50994ZM15.1481 0.929045L15.25 0.921658C15.4314 0.921701 15.6067 0.991117 15.7433 1.11705C15.8799 1.24298 15.9686 1.41689 15.993 1.60657L16 1.71316V5.14722L19.2521 5.14828C19.4333 5.14829 19.6084 5.21755 19.745 5.34327C19.8816 5.46899 19.9704 5.64265 19.9951 5.83214L20.0021 5.93978C20.002 6.13105 19.9364 6.31584 19.8173 6.45999C19.6982 6.60413 19.5336 6.69788 19.354 6.72389L19.2521 6.73128H16V10.159C16.0003 10.3505 15.9348 10.5355 15.8156 10.6799C15.6965 10.8242 15.5318 10.9181 15.352 10.9442L15.25 10.9505C15.0688 10.9505 14.8937 10.8812 14.7571 10.7555C14.6205 10.6298 14.5317 10.4561 14.507 10.2667L14.5 10.159V6.73023L11.248 6.73128C11.0668 6.73127 10.8917 6.66201 10.7551 6.53629C10.6185 6.41057 10.5297 6.23691 10.505 6.04742L10.498 5.93978C10.4981 5.74835 10.5639 5.56343 10.6832 5.41926C10.8025 5.27509 10.9673 5.18144 11.147 5.15567L11.248 5.14828H14.5V1.7121C14.5001 1.52084 14.5657 1.33604 14.6848 1.1919C14.8039 1.04775 14.9685 0.954002 15.1481 0.92799L15.25 0.920603L15.1481 0.92799V0.929045Z" fill="#1A87E6"/>
</svg>
